<?xml version="1.0" encoding="utf-8"?>
<!-- Generator: Adobe Illustrator 23.0.3, SVG Export Plug-In . SVG Version: 6.00 Build 0)  -->
<svg version="1.1" id="Слой_1" xmlns="http://www.w3.org/2000/svg" xmlns:xlink="http://www.w3.org/1999/xlink" x="0px" y="0px"
	 viewBox="0 0 100 100" style="enable-background:new 0 0 100 100;" xml:space="preserve">
<style type="text/css">
	.st0{fill:none;stroke:#2D3547;stroke-width:2;stroke-linecap:round;stroke-linejoin:round;stroke-miterlimit:10;}
	.st1{fill:none;stroke:#2D3547;stroke-width:4;stroke-linecap:round;stroke-linejoin:round;stroke-miterlimit:10;}
	.st2{fill:none;stroke:#06ADEF;stroke-width:4;stroke-linecap:round;stroke-linejoin:round;stroke-miterlimit:10;}
</style>
<polyline class="st0" points="13.5,24.5 89.7,24.5 89.8,28.6 "/>
<path class="st1" d="M63.2,73.6H17.8c-2.4,0-4.3-1.9-4.3-4.3V24.5"/>
<path class="st1" d="M39.8,73.6h45.5c2.4,0,4.3-1.9,4.3-4.3V24.5"/>
<path class="st1" d="M18.8,17c0,0-1.1,0-1.2,0c-2.3,0.1-4.1,1.9-4.1,4.2v4"/>
<path class="st1" d="M89.7,32.6V21.1c0-2.3-1.9-4.2-4.2-4.2H17.9"/>
<path class="st0" d="M67,84.3H36.3c-1.1,0-1.1,0,0,0H67C68.1,84.3,68.1,84.3,67,84.3z"/>
<polygon class="st0" points="57.9,84.3 44.4,84.3 45.7,73.6 56.6,73.6 "/>
<polyline class="st2" points="22,64.3 38.4,43.1 51.1,61 72,32.7 82.4,42.8 "/>
<line class="st0" x1="67.2" y1="47.6" x2="79.6" y2="63.1"/>
<polyline class="st0" points="50.8,49.1 53.1,46.8 56.7,32.3 61,37.6 "/>
<line class="st0" x1="32.5" y1="63.1" x2="40.7" y2="56.5"/>
</svg>
