<?xml version="1.0" encoding="utf-8"?>
<!-- Generator: Adobe Illustrator 23.1.1, SVG Export Plug-In . SVG Version: 6.00 Build 0)  -->
<svg version="1.1" id="Слой_1" xmlns="http://www.w3.org/2000/svg" xmlns:xlink="http://www.w3.org/1999/xlink" x="0px" y="0px"
	 viewBox="0 0 100 100" style="enable-background:new 0 0 100 100;" xml:space="preserve">
<style type="text/css">
	.st0{fill:none;stroke:#2C3549;stroke-width:3;stroke-linecap:round;stroke-linejoin:round;stroke-miterlimit:10;}
	.st1{fill:none;stroke:#2C3549;stroke-width:2;stroke-linecap:round;stroke-linejoin:round;stroke-miterlimit:10;}
	.st2{fill:none;stroke:#06ADEF;stroke-width:4;stroke-linecap:round;stroke-linejoin:round;stroke-miterlimit:10;}
</style>
<path class="st0" d="M42.3,85.5H13.4c-1.1,0-2.1-0.9-2.1-2.1V25.2c0-0.3,17-15.4,17-15.4h38.2c1.1,0,2.1,0.9,2.1,2.1v27.9"/>
<path class="st1" d="M13.1,24.7l13.2-0.2c1.2,0,2.1-1,2.1-2.1c0-3.1,0-8.9,0-12"/>
<line class="st1" x1="20.7" y1="36.2" x2="59.3" y2="36.2"/>
<line class="st1" x1="20.7" y1="43.1" x2="54.4" y2="43.1"/>
<path class="st0" d="M29.2,10.3"/>
<path class="st0" d="M12.3,26.3"/>
<g>
	<path class="st2" d="M74.7,73.2c-0.9,3.6,1.5,5.4,8.9,6.1c7,0.6,5,10.5,5,10.5H70.2h0.2H52c0,0-2-9.8,5-10.5
		c7.4-0.7,9.8-2.5,8.9-6.1"/>
	<path class="st2" d="M64.3,77.5c2.6,2.2,6.7,4,12.4,0.2"/>
	<path class="st2" d="M61.6,58.7c0,3.6,0,5.5,0,7.5s1.1,8.3,8.6,8.1c7.5-0.1,8.6-6.1,8.6-8.2s0-7.4,0-7.4
		c-3.5,1.7-11.4,2.6-17.6-6.1"/>
	<path class="st2" d="M81.2,57.9c-1.1-4.6-3.5-9.4-10.8-10.2c-4.1-0.4-7.4,2-9.2,4.9c-1.4,2.2-1.9,4.8-1.2,6.5
		c2.5-0.7,4.8-2.7,4.8-2.7"/>
</g>
<polyline class="st2" points="19.8,71.8 28.3,60.7 34.9,70.1 45.8,55.3 51.2,60.6 "/>
<line class="st1" x1="44.5" y1="64.3" x2="50.9" y2="72.3"/>
<polyline class="st1" points="34.3,62.8 35.5,61.6 37.4,54.1 39.6,56.8 "/>
<line class="st1" x1="24.6" y1="72.8" x2="28.8" y2="69.3"/>
</svg>
